<svg version="1.2" xmlns="http://www.w3.org/2000/svg" viewBox="0 0 400 150" width="400" height="150">
	<title>New Project</title>
	<style>
		.s0 { fill: #000000 } 
		.s1 { fill: #0000ff } 
	</style>
	<path id="brad_k" class="s0" aria-label="brad_k"  d="m14.8 59.9v-32.3h-10v81.4h10v-11.1c3.7 6.6 11.5 12.1 22.5 12.1 16.2 0 28.6-12.7 28.6-31.4 0-18.8-12.3-30.9-28.6-30.9-10.6 0-18.7 5.5-22.5 12.2zm40.9 18.7c0 14.2-9.3 22.6-20.5 22.6-10.8 0-20.4-8.3-20.4-22.5 0-13.9 9.6-22.3 20.4-22.3 11.2 0 20.5 8 20.5 22.2zm33.4-2.4c0-14 7.3-18.2 16.9-18.2h2.6v-10.4c-9.6 0-16 4.2-19.5 10.9v-9.8h-10v60.3h10zm27.3 2.4c0 18.7 12.5 31.4 28.5 31.4 11.1 0 18.9-5.8 22.6-12.2v11.2h10.1v-60.3h-10.1v11c-3.6-6.3-11.3-12-22.5-12-16.1 0-28.6 12.1-28.6 30.9zm51.1 0.1c0 14.2-9.5 22.5-20.5 22.5-11 0-20.3-8.4-20.3-22.6 0-14.2 9.3-22.2 20.3-22.2 11 0 20.5 8.4 20.5 22.3zm23.3-0.1c0 18.7 12.4 31.4 28.6 31.4 11 0 18.8-5.6 22.4-12.4v11.4h10.1v-81.4h-10.1v31.9c-4.2-6.9-12.8-11.8-22.3-11.8-16.3 0-28.7 12.1-28.7 30.9zm51 0.1c0 14.2-9.4 22.5-20.4 22.5-11 0-20.4-8.4-20.4-22.6 0-14.2 9.4-22.2 20.4-22.2 11 0 20.4 8.4 20.4 22.3zm107.7 30.3h10v-26.6l23.7 26.6h13.6l-28.5-30.3 28.4-30h-14l-23.2 26.7v-47.8h-10z"/>
	<path id="brad_k" class="s1" aria-label="brad_k"  d="m272 122.4h58.5v-9.2h-58.5z"/>
</svg>